HIERARCHY
ROOT root
{
	OFFSET 0.000000 0.000000 0.000000
	CHANNELS 6 Xposition Yposition Zposition Zrotation Yrotation Xrotation
	JOINT lhip
	{
		OFFSET 0.058581 -0.082280 -0.017664
		CHANNELS 3 Zrotation Yrotation Xrotation
		JOINT lknee
		{
			OFFSET 0.043451 -0.386469 0.008037
			CHANNELS 3 Zrotation Yrotation Xrotation
			JOINT lankle
			{
				OFFSET -0.014790 -0.426874 -0.037428
				CHANNELS 3 Zrotation Yrotation Xrotation
				JOINT ltoe
				{
					OFFSET 0.041054 -0.060286 0.122042
					CHANNELS 3 Zrotation Yrotation Xrotation
					End Site
					{
						OFFSET 0.000000 0.000000 0.000000
					}
				}
			}
		}
	}
	JOINT rhip
	{
		OFFSET -0.060310 -0.090513 -0.013543
		CHANNELS 3 Zrotation Yrotation Xrotation
		JOINT rknee
		{
			OFFSET -0.043257 -0.383688 -0.004843
			CHANNELS 3 Zrotation Yrotation Xrotation
			JOINT rankle
			{
				OFFSET 0.019056 -0.420046 -0.034562
				CHANNELS 3 Zrotation Yrotation Xrotation
				JOINT rtoe
				{
					OFFSET -0.034840 -0.062106 0.130323
					CHANNELS 3 Zrotation Yrotation Xrotation
					End Site
					{
						OFFSET 0.000000 0.000000 0.000000
					}
				}
			}
		}
	}
	JOINT lowerback
	{
		OFFSET 0.004439 0.124404 -0.038385
		CHANNELS 3 Zrotation Yrotation Xrotation
		JOINT upperback
		{
			OFFSET 0.004488 0.137956 0.026820
			CHANNELS 3 Zrotation Yrotation Xrotation
			JOINT chest
			{
				OFFSET -0.002265 0.056032 0.002855
				CHANNELS 3 Zrotation Yrotation Xrotation
				JOINT lowerneck
				{
					OFFSET -0.013390 0.211636 -0.033468
					CHANNELS 3 Zrotation Yrotation Xrotation
					JOINT upperneck
					{
						OFFSET 0.010113 0.088937 0.050410
						CHANNELS 3 Zrotation Yrotation Xrotation
						End Site
						{
							OFFSET 0.000000 0.000000 0.000000
						}
					}
				}
				JOINT lclavicle
				{
					OFFSET 0.071702 0.114000 -0.018898
					CHANNELS 3 Zrotation Yrotation Xrotation
					JOINT lshoulder
					{
						OFFSET 0.122921 0.045205 -0.019046
						CHANNELS 3 Zrotation Yrotation Xrotation
						JOINT lelbow
						{
							OFFSET 0.255332 -0.015649 -0.022946
							CHANNELS 3 Zrotation Yrotation Xrotation
							JOINT lwrist
							{
								OFFSET 0.265709 0.012698 -0.007375
								CHANNELS 3 Zrotation Yrotation Xrotation
								End Site
								{
									OFFSET 0.000000 0.000000 0.000000
								}
							}
						}
					}
				}
				JOINT rclavicle
				{
					OFFSET -0.082954 0.112472 -0.023707
					CHANNELS 3 Zrotation Yrotation Xrotation
					JOINT rshoulder
					{
						OFFSET -0.113228 0.046853 -0.008472
						CHANNELS 3 Zrotation Yrotation Xrotation
						JOINT relbow
						{
							OFFSET -0.260127 -0.014369 -0.031269
							CHANNELS 3 Zrotation Yrotation Xrotation
							JOINT rwrist
							{
								OFFSET -0.269108 0.006794 -0.006027
								CHANNELS 3 Zrotation Yrotation Xrotation
								End Site
								{
									OFFSET 0.000000 0.000000 0.000000
								}
							}
						}
					}
				}
			}
		}
	}
}
MOTION
Frames: 11
Frame Time: 0.033333
1.127071 0.606983 0.957934 85.884103 3.198486 91.584314 7.907350 5.514728 3.069924 -1.227147 -3.093187 -4.818243 7.892414 9.382869 -20.845528 0.000000 -0.000000 0.000000 -3.101559 -0.750198 1.274802 1.133892 7.951379 1.554985 -1.530355 -1.682052 -24.514257 0.000000 -0.000000 0.000000 0.382100 -2.067780 1.099828 2.071877 -3.360279 -0.969070 2.477629 3.201808 -2.071609 -5.223696 -0.221151 3.471022 8.104085 -2.577148 0.071710 -14.617259 -9.124446 5.085519 -72.601659 -13.250378 13.068674 -4.101353 -11.232349 17.887210 -11.901990 -13.718925 -20.892935 13.463374 12.423521 9.592383 67.060226 12.746645 12.591159 3.298169 19.552885 21.670743 13.364671 14.280922 -14.740209 
1.127152 0.606840 0.957840 85.962888 3.229362 91.665541 7.935020 5.410937 3.001771 -1.212660 -3.323645 -4.889991 7.661948 9.689552 -20.849200 0.000000 -0.000000 0.000000 -3.060017 -0.657608 1.264968 1.149863 8.158337 1.454858 -1.220424 -2.121297 -24.547995 0.000000 -0.000000 0.000000 0.491889 -2.364186 1.136062 1.771759 -3.197677 -1.371290 2.705151 3.293073 -1.669741 -5.397280 -0.500693 3.168073 8.343951 -2.132655 0.243588 -14.438097 -9.242321 5.056799 -72.720116 -13.109336 13.284643 -4.193977 -11.372901 18.843312 -10.548431 -13.723024 -22.494393 13.320473 12.521530 9.440193 67.177839 12.585258 12.725643 3.381886 19.534797 22.066366 11.963716 14.429033 -15.559859 
1.127217 0.606780 0.957857 85.996029 3.231723 91.707445 7.940205 5.386534 2.988207 -1.220312 -3.344572 -4.948082 7.675498 9.704866 -20.820590 0.000000 -0.000000 0.000000 -3.055984 -0.637121 1.239730 1.159959 8.151476 1.440964 -1.218763 -2.162209 -24.543288 0.000000 -0.000000 0.000000 0.493189 -2.372164 1.160616 1.762716 -3.200497 -1.417451 2.700580 3.293960 -1.642545 -5.278039 -0.470715 3.168675 8.387221 -2.107526 0.322814 -14.402667 -9.260906 5.053970 -72.774628 -13.107267 13.345819 -4.155303 -11.296743 18.896776 -10.398618 -13.716175 -22.587160 13.274780 12.533683 9.428287 67.229430 12.547752 12.770502 3.342768 19.535163 22.109445 11.829719 14.449247 -15.695110 
1.127494 0.606721 0.957833 86.045339 3.236298 91.744871 7.955916 5.370953 2.966819 -1.232298 -3.392704 -4.969546 7.713636 9.723711 -20.802115 0.000000 -0.000000 0.000000 -3.048134 -0.628568 1.236103 1.173810 8.159577 1.414732 -1.244272 -2.240634 -24.553321 0.000000 -0.000000 0.000000 0.491721 -2.399662 1.140351 1.767090 -3.206386 -1.425586 2.695704 3.296102 -1.680278 -5.172105 -0.343953 3.200980 8.407573 -1.919645 0.631535 -14.431188 -9.268222 5.124082 -72.766971 -13.089137 13.319081 -4.158022 -11.290064 18.980134 -10.388455 -13.751281 -22.673731 13.251631 12.542063 9.542751 67.239927 12.568156 12.764995 3.345734 19.557256 22.197542 11.821513 14.500047 -15.846815 
1.127668 0.606679 0.957816 86.056615 3.239120 91.749226 7.961193 5.363682 2.973197 -1.230345 -3.398100 -4.971900 7.722143 9.733600 -20.811797 0.000000 -0.000000 0.000000 -3.040664 -0.624405 1.250136 1.174022 8.170537 1.404034 -1.253325 -2.269229 -24.556166 0.000000 -0.000000 0.000000 0.487913 -2.405759 1.146216 1.777618 -3.210615 -1.448956 2.698212 3.295581 -1.707279 -5.133566 -0.263314 3.313508 8.370242 -1.814952 0.921437 -14.446457 -9.296781 5.194843 -72.769953 -13.076740 13.300412 -4.164262 -11.317989 19.021453 -10.424229 -13.772693 -22.728627 13.253458 12.561189 9.615835 67.229337 12.590234 12.747793 3.353067 19.572432 22.210688 11.824184 14.534433 -15.901991 
1.127961 0.606631 0.957787 86.071782 3.250492 91.739600 7.980873 5.388535 2.994920 -1.231068 -3.426586 -4.956113 7.745265 9.726608 -20.821064 0.000000 -0.000000 0.000000 -3.021546 -0.653965 1.283931 1.166682 8.200602 1.407603 -1.265626 -2.285079 -24.568534 0.000000 -0.000000 0.000000 0.499459 -2.401438 1.135488 1.795961 -3.205813 -1.497491 2.707654 3.292973 -1.717633 -5.169831 -0.230619 3.606252 8.259506 -1.671143 1.382632 -14.450648 -9.300888 5.262730 -72.818352 -13.112832 13.277157 -4.190801 -11.306038 19.072700 -10.381537 -13.793312 -22.736815 13.240635 12.559722 9.689116 67.244330 12.614233 12.723607 3.336509 19.564462 22.223765 11.818272 14.549667 -15.913084 
1.128304 0.606582 0.957749 86.075041 3.248362 91.732677 7.987193 5.386185 3.027472 -1.239442 -3.436815 -4.959845 7.785112 9.733332 -20.828609 0.000000 -0.000000 0.000000 -3.025475 -0.666953 1.320487 1.173542 8.228374 1.401628 -1.283263 -2.307897 -24.589196 0.000000 -0.000000 0.000000 0.501349 -2.394416 1.082569 1.824269 -3.199438 -1.504505 2.704360 3.282374 -1.754687 -5.234335 -0.200783 3.966914 8.078254 -1.556633 1.962454 -14.472330 -9.281328 5.350271 -72.847846 -13.165875 13.236858 -4.193286 -11.328210 19.099270 -10.460091 -13.783241 -22.690554 13.260450 12.538774 9.775777 67.246059 12.674844 12.698248 3.303777 19.547725 22.212271 11.927535 14.562762 -15.890409 
1.128662 0.606533 0.957711 86.080177 3.256557 91.722479 8.000524 5.385739 3.057033 -1.239720 -3.434567 -4.952694 7.816073 9.736381 -20.836354 0.000000 -0.000000 0.000000 -3.013411 -0.657137 1.352058 1.180673 8.245387 1.410557 -1.301530 -2.347637 -24.608828 0.000000 -0.000000 0.000000 0.515423 -2.393257 1.020082 1.862781 -3.183761 -1.499853 2.703082 3.264652 -1.793349 -5.317796 -0.186942 4.407797 7.850170 -1.436609 2.493416 -14.530005 -9.259256 5.456320 -72.847575 -13.247879 13.194683 -4.197900 -11.347626 19.101278 -10.465332 -13.791645 -22.702791 13.279877 12.518072 9.894210 67.246801 12.763337 12.698149 3.273677 19.558574 22.159005 11.894089 14.594454 -15.956812 
1.128953 0.606488 0.957676 86.104234 3.257136 91.707167 8.008760 5.389999 3.087622 -1.239644 -3.458126 -4.947743 7.830465 9.731361 -20.836375 0.000000 -0.000000 0.000000 -3.011434 -0.677223 1.385351 1.184351 8.230733 1.432209 -1.314830 -2.346140 -24.631943 0.000000 -0.000000 0.000000 0.537723 -2.402236 0.974103 1.890579 -3.185409 -1.542645 2.688007 3.249275 -1.801858 -5.412947 -0.155452 4.920702 7.652347 -1.343650 3.021996 -14.559748 -9.238455 5.543977 -72.849392 -13.325602 13.180354 -4.211130 -11.367542 19.061998 -10.459007 -13.826551 -22.715115 13.294148 12.488383 9.977070 67.265690 12.837303 12.718382 3.278914 19.580410 22.128425 11.839417 14.615066 -15.996563 
1.129294 0.606428 0.957664 86.129157 3.259073 91.687332 8.023033 5.413188 3.121563 -1.239612 -3.504527 -4.948123 7.846284 9.732603 -20.842422 0.000000 -0.000000 0.000000 -3.004848 -0.698911 1.424397 1.185314 8.206824 1.449436 -1.315728 -2.344531 -24.667722 0.000000 -0.000000 0.000000 0.559613 -2.419944 0.915124 1.920536 -3.180150 -1.594454 2.662255 3.250809 -1.819625 -5.456399 -0.104711 5.661019 7.475144 -1.287169 3.782654 -14.595999 -9.242004 5.644310 -72.833361 -13.410891 13.190583 -4.218499 -11.384459 19.171177 -10.523872 -13.818011 -22.708993 13.305485 12.471965 10.091017 67.294493 12.902326 12.744163 3.321872 19.625713 22.203225 11.752192 14.657719 -16.139966 
1.129589 0.606383 0.957650 86.154830 3.266882 91.656759 8.041740 5.410308 3.156887 -1.231408 -3.525289 -4.938186 7.839797 9.723232 -20.838906 0.000000 -0.000000 0.000000 -2.987706 -0.694753 1.477245 1.179419 8.177626 1.455147 -1.320093 -2.351584 -24.675433 0.000000 -0.000000 0.000000 0.566989 -2.424290 0.884183 1.951656 -3.181230 -1.615090 2.645133 3.241995 -1.860991 -5.438928 -0.073516 6.318135 7.403142 -1.225291 4.438534 -14.631495 -9.240136 5.755769 -72.820009 -13.501506 13.172743 -4.202397 -11.377737 19.152978 -10.572350 -13.815289 -22.672398 13.346600 12.449795 10.178806 67.266945 12.941695 12.740225 3.373820 19.648872 22.292142 11.688822 14.709993 -16.183864 
